<svg xmlns="http://www.w3.org/2000/svg">
<symbol id="about" viewBox="-42 0 512 512.001"><path d="m210.351562 246.632812c33.882813 0 63.21875-12.152343 87.195313-36.128906 23.96875-23.972656 36.125-53.304687 36.125-87.191406 0-33.875-12.152344-63.210938-36.128906-87.191406-23.976563-23.96875-53.3125-36.121094-87.191407-36.121094-33.886718 0-63.21875 12.152344-87.191406 36.125s-36.128906 53.308594-36.128906 87.1875c0 33.886719 12.15625 63.222656 36.128906 87.195312 23.980469 23.96875 53.316406 36.125 87.191406 36.125zm-65.972656-189.292968c18.394532-18.394532 39.972656-27.335938 65.972656-27.335938 25.996094 0 47.578126 8.941406 65.976563 27.335938 18.394531 18.398437 27.339844 39.980468 27.339844 65.972656 0 26-8.945313 47.578125-27.339844 65.976562-18.398437 18.398438-39.980469 27.339844-65.976563 27.339844-25.992187 0-47.570312-8.945312-65.972656-27.339844-18.398437-18.394531-27.34375-39.976562-27.34375-65.976562 0-25.992188 8.945313-47.574219 27.34375-65.972656zm0 0"/><path d="m426.128906 393.703125c-.691406-9.976563-2.089844-20.859375-4.148437-32.351563-2.078125-11.578124-4.753907-22.523437-7.957031-32.527343-3.3125-10.339844-7.808594-20.550781-13.375-30.335938-5.769532-10.15625-12.550782-19-20.160157-26.277343-7.957031-7.613282-17.699219-13.734376-28.964843-18.199219-11.226563-4.441407-23.667969-6.691407-36.976563-6.691407-5.226563 0-10.28125 2.144532-20.042969 8.5-6.007812 3.917969-13.035156 8.449219-20.878906 13.460938-6.707031 4.273438-15.792969 8.277344-27.015625 11.902344-10.949219 3.542968-22.066406 5.339844-33.042969 5.339844-10.96875 0-22.085937-1.796876-33.042968-5.339844-11.210938-3.621094-20.300782-7.625-26.996094-11.898438-7.769532-4.964844-14.800782-9.496094-20.898438-13.46875-9.753906-6.355468-14.808594-8.5-20.035156-8.5-13.3125 0-25.75 2.253906-36.972656 6.699219-11.257813 4.457031-21.003906 10.578125-28.96875 18.199219-7.609375 7.28125-14.390625 16.121094-20.15625 26.273437-5.558594 9.785157-10.058594 19.992188-13.371094 30.339844-3.199219 10.003906-5.875 20.945313-7.953125 32.523437-2.0625 11.476563-3.457031 22.363282-4.148437 32.363282-.679688 9.777344-1.023438 19.953125-1.023438 30.234375 0 26.726562 8.496094 48.363281 25.25 64.320312 16.546875 15.746094 38.4375 23.730469 65.066406 23.730469h246.53125c26.621094 0 48.511719-7.984375 65.0625-23.730469 16.757813-15.945312 25.253906-37.589843 25.253906-64.324219-.003906-10.316406-.351562-20.492187-1.035156-30.242187zm-44.90625 72.828125c-10.933594 10.40625-25.449218 15.464844-44.378906 15.464844h-246.527344c-18.933594 0-33.449218-5.058594-44.378906-15.460938-10.722656-10.207031-15.933594-24.140625-15.933594-42.585937 0-9.59375.316406-19.066407.949219-28.160157.617187-8.921874 1.878906-18.722656 3.75-29.136718 1.847656-10.285156 4.199219-19.9375 6.996094-28.675782 2.683593-8.378906 6.34375-16.675781 10.882812-24.667968 4.332031-7.617188 9.316407-14.152344 14.816407-19.417969 5.144531-4.925781 11.628906-8.957031 19.269531-11.980469 7.066406-2.796875 15.007812-4.328125 23.628906-4.558594 1.050781.558594 2.921875 1.625 5.953125 3.601563 6.167969 4.019531 13.277344 8.605469 21.136719 13.625 8.859375 5.648437 20.273437 10.75 33.910156 15.152344 13.941406 4.507812 28.160156 6.796875 42.273437 6.796875 14.113282 0 28.335938-2.289063 42.269532-6.792969 13.648437-4.410156 25.058594-9.507813 33.929687-15.164063 8.042969-5.140624 14.953125-9.59375 21.121094-13.617187 3.03125-1.972656 4.902344-3.042969 5.953125-3.601563 8.625.230469 16.566406 1.761719 23.636719 4.558594 7.636719 3.023438 14.121093 7.058594 19.265625 11.980469 5.5 5.261719 10.484375 11.796875 14.816406 19.421875 4.542969 7.988281 8.207031 16.289062 10.886719 24.660156 2.800781 8.75 5.15625 18.398438 7 28.675782 1.867187 10.433593 3.132812 20.238281 3.75 29.144531v.007812c.636719 9.058594.957031 18.527344.960937 28.148438-.003906 18.449219-5.214844 32.378906-15.9375 42.582031zm0 0"/></symbol>
<symbol id="arrow-bot" viewBox="0 0 320 512"><path fill="currentColor" d="M143 352.3L7 216.3c-9.4-9.4-9.4-24.6 0-33.9l22.6-22.6c9.4-9.4 24.6-9.4 33.9 0l96.4 96.4 96.4-96.4c9.4-9.4 24.6-9.4 33.9 0l22.6 22.6c9.4 9.4 9.4 24.6 0 33.9l-136 136c-9.2 9.4-24.4 9.4-33.8 0z"/></symbol>
<symbol id="arrow-down" viewBox="0 0 123.959 123.958"> <g> <path d="M117.979,28.017h-112c-5.3,0-8,6.4-4.2,10.2l56,56c2.3,2.3,6.1,2.3,8.401,0l56-56
		C125.979,34.417,123.279,28.017,117.979,28.017z"/> </g>                </symbol>
<symbol id="arrow-left" viewBox="0 0 256 512"><path fill="currentColor" d="M31.7 239l136-136c9.4-9.4 24.6-9.4 33.9 0l22.6 22.6c9.4 9.4 9.4 24.6 0 33.9L127.9 256l96.4 96.4c9.4 9.4 9.4 24.6 0 33.9L201.7 409c-9.4 9.4-24.6 9.4-33.9 0l-136-136c-9.5-9.4-9.5-24.6-.1-34z"/></symbol>
<symbol id="arrow-link" viewBox="0 0 512 512"><path fill="" d="M512 199.652c0 23.625-20.65 43.826-44.8 43.826h-99.851c16.34 17.048 18.346 49.766-6.299 70.944 14.288 22.829 2.147 53.017-16.45 62.315C353.574 425.878 322.654 448 272 448c-2.746 0-13.276-.203-16-.195-61.971.168-76.894-31.065-123.731-38.315C120.596 407.683 112 397.599 112 385.786V214.261l.002-.001c.011-18.366 10.607-35.889 28.464-43.845 28.886-12.994 95.413-49.038 107.534-77.323 7.797-18.194 21.384-29.084 40-29.092 34.222-.014 57.752 35.098 44.119 66.908-3.583 8.359-8.312 16.67-14.153 24.918H467.2c23.45 0 44.8 20.543 44.8 43.826zM96 200v192c0 13.255-10.745 24-24 24H24c-13.255 0-24-10.745-24-24V200c0-13.255 10.745-24 24-24h48c13.255 0 24 10.745 24 24zM68 368c0-11.046-8.954-20-20-20s-20 8.954-20 20 8.954 20 20 20 20-8.954 20-20z"/></symbol>
<symbol id="arrow-right" viewBox="0 0 256 512"><path fill="currentColor" d="M224.3 273l-136 136c-9.4 9.4-24.6 9.4-33.9 0l-22.6-22.6c-9.4-9.4-9.4-24.6 0-33.9l96.4-96.4-96.4-96.4c-9.4-9.4-9.4-24.6 0-33.9L54.3 103c9.4-9.4 24.6-9.4 33.9 0l136 136c9.5 9.4 9.5 24.6.1 34z"/></symbol>
<symbol id="close-modal" viewBox="0 0 512 512"><path fill="" d="M256 8C119 8 8 119 8 256s111 248 248 248 248-111 248-248S393 8 256 8zm0 448c-110.5 0-200-89.5-200-200S145.5 56 256 56s200 89.5 200 200-89.5 200-200 200zm101.8-262.2L295.6 256l62.2 62.2c4.7 4.7 4.7 12.3 0 17l-22.6 22.6c-4.7 4.7-12.3 4.7-17 0L256 295.6l-62.2 62.2c-4.7 4.7-12.3 4.7-17 0l-22.6-22.6c-4.7-4.7-4.7-12.3 0-17l62.2-62.2-62.2-62.2c-4.7-4.7-4.7-12.3 0-17l22.6-22.6c4.7-4.7 12.3-4.7 17 0l62.2 62.2 62.2-62.2c4.7-4.7 12.3-4.7 17 0l22.6 22.6c4.7 4.7 4.7 12.3 0 17z"/></symbol>
<symbol id="contacts" viewBox="0 0 117.13 122.88"><title>contacts</title><path d="M105.87,80.26h7.88a3.4,3.4,0,0,1,1.18.2,3.2,3.2,0,0,1,1.23.76h0a3.17,3.17,0,0,1,.77,1.22h0a3.75,3.75,0,0,1,.2,1.18V99.52a3,3,0,0,1-.11.83l-.06.23a3.11,3.11,0,0,1-.74,1.19,3.27,3.27,0,0,1-.81.6,2.93,2.93,0,0,1-1.34.32h-8.2V104a19,19,0,0,1-18.93,18.93h-68A19,19,0,0,1,0,104v-85A19,19,0,0,1,18.93,0h68a19,19,0,0,1,18.93,18.93v1.83h7.88a3.29,3.29,0,0,1,1.44.32,3.18,3.18,0,0,1,1.23,1h0a3.53,3.53,0,0,1,.55,1.05h0a3.58,3.58,0,0,1,.18,1.11v15.9a2.79,2.79,0,0,1-.19,1,2,2,0,0,1-.18.4,3.05,3.05,0,0,1-.79.94,3.79,3.79,0,0,1-.56.36h0a2.94,2.94,0,0,1-1.33.33h-8.2v7h7.88a3.37,3.37,0,0,1,1.44.32h0a3.25,3.25,0,0,1,1.23,1h0a3.46,3.46,0,0,1,.5.89,3.34,3.34,0,0,1,.22,1.19v16a3,3,0,0,1-.32,1.33,3.23,3.23,0,0,1-.59.82h0a2.92,2.92,0,0,1-.83.6h0a3,3,0,0,1-1.32.32h-8.2v7.59ZM52.94,27.46a34,34,0,1,1-24,10,33.87,33.87,0,0,1,24-10ZM73.6,40.77a29.23,29.23,0,0,0-44,38.2c3.5-1.58,11.14-2.23,14.42-4.51a11.81,11.81,0,0,0,.79-1.53c.39-.91.76-1.9,1-2.57a32.4,32.4,0,0,1-2.58-3.68l-2.61-4.16a7.68,7.68,0,0,1-1.49-3.8,3,3,0,0,1,.26-1.36A2.66,2.66,0,0,1,40.86,56a63.89,63.89,0,0,1-.13-7.48,11.17,11.17,0,0,1,.32-1.69,10,10,0,0,1,4.42-5.63,13.49,13.49,0,0,1,3.7-1.64c.83-.24-.71-2.89.15-3,4.15-.42,10.87,3.37,13.77,6.5a10.19,10.19,0,0,1,2.56,6.41l-.16,6.79h0a1.87,1.87,0,0,1,1.37,1.42,5.88,5.88,0,0,1-.72,3.57h0l0,.09-3,4.91a25.92,25.92,0,0,1-3.66,5l.4.57a17.81,17.81,0,0,0,2,2.51.27.27,0,0,1,.07.08c3.25,2.3,10.92,3,14.44,4.53A29.25,29.25,0,0,0,73.6,40.77ZM86.94,7.12h-68A11.88,11.88,0,0,0,7.12,18.93v85a11.88,11.88,0,0,0,11.81,11.81h68A11.88,11.88,0,0,0,98.75,104v-85A11.88,11.88,0,0,0,86.94,7.12Z"/></symbol>
<symbol id="css" viewBox="0 0 550.801 550.801"> <g> <path d="M488.426,197.021H475.2v-63.819c0-0.398-0.063-0.799-0.116-1.202c-0.021-2.534-0.827-5.023-2.562-6.995L366.325,3.694
		c-0.032-0.031-0.063-0.042-0.085-0.076c-0.633-0.707-1.371-1.295-2.151-1.804c-0.231-0.155-0.464-0.285-0.706-0.419
		c-0.676-0.369-1.393-0.675-2.131-0.896c-0.2-0.056-0.38-0.135-0.58-0.19C359.87,0.119,359.037,0,358.193,0H97.2
		c-11.918,0-21.6,9.693-21.6,21.601v175.415H62.375c-17.046,0-30.871,13.816-30.871,30.871v160.545
		c0,17.038,13.824,30.87,30.871,30.87h13.226V529.2c0,11.907,9.682,21.601,21.6,21.601h356.4c11.907,0,21.6-9.693,21.6-21.601
		V419.302h13.226c17.044,0,30.871-13.827,30.871-30.87v-160.54C519.297,210.838,505.47,197.021,488.426,197.021z M97.2,21.605
		h250.193v110.513c0,5.967,4.841,10.8,10.8,10.8h95.407v54.108H97.2V21.605z M263.591,318.184
		c-26.795-9.334-44.268-24.163-44.268-47.605c0-27.527,22.966-48.587,61.024-48.587c18.178,0,31.577,3.828,41.154,8.142
		l-8.132,29.437c-6.471-3.122-17.945-7.67-33.753-7.67c-15.788,0-23.445,7.183-23.445,15.559c0,10.293,9.099,14.839,29.913,22.739
		c28.477,10.526,41.871,25.355,41.871,48.094c0,27.043-20.809,50.014-65.082,50.014c-18.425,0-36.608-4.799-45.702-9.819
		l7.42-30.143c9.809,5.021,24.885,10.04,40.442,10.04c16.749,0,25.597-6.929,25.597-17.455
		C290.63,330.866,282.973,325.134,263.591,318.184z M73.575,307.663c0-55.044,39.253-85.672,88.064-85.672
		c18.9,0,33.257,3.828,39.722,7.18l-7.42,28.951c-7.425-3.101-17.705-5.967-30.628-5.967c-28.957,0-51.448,17.463-51.448,53.346
		c0,32.306,19.145,52.65,51.69,52.65c11.005,0,23.208-2.384,30.391-5.273l5.498,28.481c-6.702,3.354-21.774,6.94-41.396,6.94
		C102.297,388.3,73.575,353.595,73.575,307.663z M453.601,523.353H97.2V419.302h356.4V523.353z M392.102,388.3
		c-18.42,0-36.603-4.805-45.699-9.819l7.425-30.144c9.798,5.026,24.88,10.041,40.426,10.041c16.759,0,25.608-6.93,25.608-17.45
		c0-10.051-7.652-15.794-27.032-22.744c-26.8-9.334-44.275-24.163-44.275-47.605c0-27.527,22.977-48.587,61.024-48.587
		c18.188,0,31.588,3.828,41.164,8.142l-8.143,29.437c-6.454-3.122-17.939-7.67-33.739-7.67c-15.794,0-23.445,7.183-23.445,15.559
		c0,10.293,9.091,14.839,29.911,22.739c28.477,10.526,41.876,25.355,41.876,48.094C457.197,365.328,436.377,388.3,392.102,388.3z"/> </g>                </symbol>
<symbol id="discord" viewBox="0 0 200 200"><path d="m100 0c55.2286 0 100 44.7714 100 100s-44.7714 100-100 100-100-44.7714-100-100 44.7714-100 100-100zm43.114286 34h-84.2285717c-7.1028572 0-12.8857143 5.796-12.8857143 12.978v85.176c0 7.182 5.7828571 12.978 12.8857143 12.978h71.2799997l-3.331428-11.655 8.045714 7.497 7.605714 7.056 13.514286 11.97v-113.022c0-7.182-5.782857-12.978-12.885714-12.978zm-24.262857 82.278s-2.262858-2.709-4.148572-5.103c8.234286-2.331 11.377143-7.497 11.377143-7.497-2.577143 1.701-5.028571 2.898-7.228571 3.717-3.142858 1.323-6.16 2.205-9.114286 2.709-6.034286 1.134-11.5657144.819-16.2800001-.063-3.5828572-.693-6.6628572-1.701-9.24-2.709-1.4457143-.567-3.0171429-1.26-4.5885715-2.142-.1885714-.126-.3771428-.189-.5657143-.315-.1257142-.063-.1885714-.126-.2514285-.189-1.1314286-.63-1.76-1.071-1.76-1.071s3.0171428 5.04 11 7.434c-1.8857143 2.394-4.2114286 5.229-4.2114286 5.229-13.8914286-.441-19.1714286-9.576-19.1714286-9.576 0-20.286 9.0514286-36.729 9.0514286-36.729 9.0514286-6.804 17.6628571-6.615 17.6628571-6.615l.6285715.756c-11.3142857 3.276-16.5314286 8.253-16.5314286 8.253s1.3828571-.756 3.7085714-1.827c6.7257143-2.961 12.0685715-3.78 14.2685715-3.969.3771428-.063.6914285-.126 1.0685714-.126 3.8342857-.504 8.1714287-.63 12.6971427-.126 5.971429.693 12.382857 2.457 18.92 6.048 0 0-4.965714-4.725-15.651428-8.001l.88-1.008s8.611428-.189 17.662857 6.615c0 0 9.051428 16.443 9.051428 36.729 0 0-5.342857 9.135-19.234285 9.576zm-29.2285719-29.421c-3.5828571 0-6.4114285 3.15-6.4114285 6.993s2.8914285 6.993 6.4114285 6.993c3.5828572 0 6.4114286-3.15 6.4114286-6.993.0628572-3.843-2.8285714-6.993-6.4114286-6.993zm22.9428569 0c-3.582857 0-6.411428 3.15-6.411428 6.993s2.891428 6.993 6.411428 6.993c3.582857 0 6.411429-3.15 6.411429-6.993s-2.828572-6.993-6.411429-6.993z" fill="" fill-rule="evenodd"/></symbol>
<symbol id="download" viewBox="-53 1 511 511.99906"> <g id="surface1"> <path d="M 276.410156 3.957031 C 274.0625 1.484375 270.84375 0 267.507812 0 L 67.777344 0 C 30.921875 0 0.5 30.300781 0.5 67.152344 L 0.5 444.84375 C 0.5 481.699219 30.921875 512 67.777344 512 L 338.863281 512 C 375.71875 512 406.140625 481.699219 406.140625 444.84375 L 406.140625 144.941406 C 406.140625 141.726562 404.65625 138.636719 402.554688 136.285156 Z M 279.996094 43.65625 L 364.464844 132.328125 L 309.554688 132.328125 C 293.230469 132.328125 279.996094 119.21875 279.996094 102.894531 Z M 338.863281 487.265625 L 67.777344 487.265625 C 44.652344 487.265625 25.234375 468.097656 25.234375 444.84375 L 25.234375 67.152344 C 25.234375 44.027344 44.527344 24.734375 67.777344 24.734375 L 255.261719 24.734375 L 255.261719 102.894531 C 255.261719 132.945312 279.503906 157.0625 309.554688 157.0625 L 381.40625 157.0625 L 381.40625 444.84375 C 381.40625 468.097656 362.113281 487.265625 338.863281 487.265625 Z M 338.863281 487.265625 " style=" stroke:none;fill-rule:nonzero;fill:rgb(0%,0%,0%);fill-opacity:1;"/> <path d="M 305.101562 401.933594 L 101.539062 401.933594 C 94.738281 401.933594 89.171875 407.496094 89.171875 414.300781 C 89.171875 421.101562 94.738281 426.667969 101.539062 426.667969 L 305.226562 426.667969 C 312.027344 426.667969 317.59375 421.101562 317.59375 414.300781 C 317.59375 407.496094 312.027344 401.933594 305.101562 401.933594 Z M 305.101562 401.933594 " style=" stroke:none;fill-rule:nonzero;fill:rgb(0%,0%,0%);fill-opacity:1;"/> <path d="M 140 268.863281 L 190.953125 214.074219 L 190.953125 349.125 C 190.953125 355.925781 196.519531 361.492188 203.320312 361.492188 C 210.125 361.492188 215.6875 355.925781 215.6875 349.125 L 215.6875 214.074219 L 266.640625 268.863281 C 269.113281 271.457031 272.332031 272.820312 275.667969 272.820312 C 278.636719 272.820312 281.730469 271.707031 284.078125 269.480469 C 289.027344 264.78125 289.398438 256.988281 284.699219 252.042969 L 212.226562 174.253906 C 209.875 171.78125 206.660156 170.296875 203.199219 170.296875 C 199.734375 170.296875 196.519531 171.78125 194.171875 174.253906 L 121.699219 252.042969 C 117 256.988281 117.371094 264.902344 122.316406 269.480469 C 127.511719 274.179688 135.300781 273.808594 140 268.863281 Z M 140 268.863281 " style=" stroke:none;fill-rule:nonzero;fill:rgb(0%,0%,0%);fill-opacity:1;"/> </g> </symbol>
<symbol id="figma" viewBox="0 0 50 50"><path d="M25 2v14h-7c-3.855 0-7-3.145-7-7 0-3.855 3.145-7 7-7H25zM25 18v14h-7c-3.855 0-7-3.145-7-7 0-3.855 3.145-7 7-7H25zM25 34v7c0 3.855-3.145 7-7 7s-7-3.145-7-7c0-3.855 3.145-7 7-7H25zM41 9c0 3.855-3.145 7-7 7h-7V2h7C37.855 2 41 5.145 41 9zM34 18A7 7 0 1034 32 7 7 0 1034 18z"/></symbol>
<symbol id="git" viewBox="0 0 50 50"><path d="M 46.792969 22.089844 L 27.910156 3.207031 C 27.109375 2.402344 26.054688 2 25 2 C 23.945313 2 22.890625 2.402344 22.089844 3.207031 L 18.355469 6.941406 L 22.976563 11.5625 C 24.511719 10.660156 26.511719 10.855469 27.828125 12.171875 C 29.144531 13.488281 29.335938 15.488281 28.433594 17.019531 L 32.976563 21.5625 C 34.511719 20.660156 36.511719 20.855469 37.828125 22.171875 C 39.390625 23.734375 39.390625 26.265625 37.828125 27.828125 C 36.265625 29.390625 33.734375 29.390625 32.171875 27.828125 C 30.855469 26.511719 30.660156 24.511719 31.5625 22.976563 L 27.019531 18.433594 C 26.695313 18.625 26.355469 18.765625 26 18.855469 L 26 31.140625 C 27.722656 31.585938 29 33.136719 29 35 C 29 37.210938 27.210938 39 25 39 C 22.789063 39 21 37.210938 21 35 C 21 33.136719 22.277344 31.585938 24 31.140625 L 24 18.855469 C 23.332031 18.683594 22.695313 18.351563 22.171875 17.828125 C 20.855469 16.511719 20.664063 14.511719 21.566406 12.980469 L 16.941406 8.355469 L 3.207031 22.089844 C 1.597656 23.695313 1.597656 26.304688 3.207031 27.910156 L 22.089844 46.792969 C 22.890625 47.597656 23.945313 48 25 48 C 26.054688 48 27.109375 47.597656 27.910156 46.792969 L 46.792969 27.910156 C 48.402344 26.304688 48.402344 23.695313 46.792969 22.089844 Z"/></symbol>
<symbol id="github" viewBox="0 0 200 195"><path d="m0 99.8132231c0-55.1272727 44.6958678-99.8132231 99.814876-99.8132231 55.123967 0 99.813223 44.6859504 99.813223 99.8132231 0 44.0859509-28.563636 81.4876029-68.201653 94.7008269-5.059504.980165-6.856198-2.132232-6.856198-4.78843 0-3.289256.115702-14.038017.115702-27.391736 0-9.312396-3.190082-15.386777-6.770248-18.484297 22.226447-2.471075 45.57686-10.912397 45.57686-49.249587 0-10.8975207-3.872727-19.8016529-10.272727-26.7917355 1.036363-2.5157025 4.454545-12.6661157-.978513-26.4148761 0 0-8.370248-2.6826446-27.421487 10.231405-7.97686-2.2115703-16.522314-3.3206612-25.004959-3.3586777-8.4826446.0380165-17.0214876 1.1471074-24.983471 3.3586777-19.0743802-12.9140496-27.4561984-10.231405-27.4561984-10.231405-5.4198347 13.7487604-2.0033058 23.8991736-.9669421 26.4148761-6.385124 6.9900826-10.2842976 15.8942148-10.2842976 26.7917355 0 38.246281 23.3057852 46.804959 45.4760331 49.328926-2.8545455 2.490909-5.4413223 6.89752-6.3371901 13.347107-5.6958678 2.550413-20.1438016 6.961984-29.046281-8.297521 0 0-5.2776859-9.583471-15.3008264-10.28595 0 0-9.738843-.127273-.6826446 6.067769 0 0 6.5421487 3.067768 11.0826446 14.604958 0 0 5.8595041 17.814876 33.6280992 11.77686.0429752 8.340496.1355371 16.203306.1355371 18.583471 0 2.636363-1.8314049 5.72562-6.8198347 4.801653-39.6595041-13.198347-68.2595041-50.613223-68.2595041-94.7140499zm37.3839168 44.0277539c-.2198347.497521-1 .644628-1.7107438.304132-.7239669-.32562-1.1305785-1.001653-.8958677-1.499173.214876-.510744.9966942-.65124 1.7190082-.312397.7256199.327273 1.138843 1.009917.8876033 1.507438zm3.2568903 4.381247c-.476033.441323-1.4066115.236364-2.0380165-.461157-.6528926-.695867-.7752066-1.626446-.292562-2.07438.4909091-.441322 1.3933884-.23471 2.0479339.461157.6528926.704133.7801653 1.628099.2826446 2.07438zm5.0211896 5.605256c-.6115702.424793-1.6115702.026446-2.229752-.861157-.6115703-.887604-.6115703-1.952066.0132231-2.378513.6198347-.426446 1.6049587-.042975 2.231405.838017.6099173.900826.6099173 1.966942-.0148761 2.401653zm4.0436184 6.491678c-.5471074.603306-1.7123967.441322-2.5652892-.381818-.8727273-.804959-1.1157025-1.947108-.5669422-2.550414.553719-.604958 1.7256198-.43471 2.585124.381819.8661157.803305 1.1305785 1.953719.5471074 2.550413zm7.3621875 2.191517c-.2413223.781818-1.3636363 1.13719-2.4942148.804959-1.1289257-.342149-1.8677686-1.257852-1.6396695-2.047934.2347108-.786777 1.3619835-1.157025 2.5008265-.801653 1.1272727.340496 1.8677686 1.249587 1.6330578 2.044628zm8.3784784.929584c.0280992.82314-.9305785 1.505785-2.1173554 1.519008-1.1933884.028099-2.1586777-.638016-2.1719008-1.447934 0-.831405.9371901-1.507438 2.1305785-1.527272 1.1867769-.023141 2.1586777.638016 2.1586777 1.456198zm8.2309163-1.968402c.1421488.803306-.6826446 1.6281-1.861157 1.846281-1.1586777.213224-2.2314049-.282644-2.3785124-1.079338-.1438016-.823141.6958678-1.647934 1.8528926-1.861157 1.1801653-.204959 2.2363636.277686 2.3867768 1.094214z" fill="" fill-rule=""/></symbol>
<symbol id="home" viewBox="0 0 495.398 495.398"> <g> <g> <g> <path d="M487.083,225.514l-75.08-75.08V63.704c0-15.682-12.708-28.391-28.413-28.391c-15.669,0-28.377,12.709-28.377,28.391
				v29.941L299.31,37.74c-27.639-27.624-75.694-27.575-103.27,0.05L8.312,225.514c-11.082,11.104-11.082,29.071,0,40.158
				c11.087,11.101,29.089,11.101,40.172,0l187.71-187.729c6.115-6.083,16.893-6.083,22.976-0.018l187.742,187.747
				c5.567,5.551,12.825,8.312,20.081,8.312c7.271,0,14.541-2.764,20.091-8.312C498.17,254.586,498.17,236.619,487.083,225.514z"/> <path d="M257.561,131.836c-5.454-5.451-14.285-5.451-19.723,0L72.712,296.913c-2.607,2.606-4.085,6.164-4.085,9.877v120.401
				c0,28.253,22.908,51.16,51.16,51.16h81.754v-126.61h92.299v126.61h81.755c28.251,0,51.159-22.907,51.159-51.159V306.79
				c0-3.713-1.465-7.271-4.085-9.877L257.561,131.836z"/> </g> </g> </g>                </symbol>
<symbol id="html" viewBox="0 0 550.801 550.801"> <g> <path d="M488.426,197.019H475.2v-63.816c0-0.401-0.063-0.799-0.116-1.205c-0.021-2.534-0.827-5.023-2.562-6.992L366.325,3.691
		c-0.032-0.031-0.063-0.042-0.085-0.073c-0.633-0.707-1.371-1.298-2.151-1.804c-0.231-0.158-0.464-0.287-0.706-0.422
		c-0.676-0.366-1.393-0.675-2.131-0.896c-0.2-0.053-0.38-0.135-0.58-0.19C359.87,0.119,359.037,0,358.193,0H97.2
		c-11.918,0-21.6,9.693-21.6,21.601v175.413H62.377c-17.049,0-30.873,13.818-30.873,30.87v160.542
		c0,17.044,13.824,30.876,30.873,30.876h13.224V529.2c0,11.907,9.682,21.601,21.6,21.601h356.4c11.907,0,21.6-9.693,21.6-21.601
		V419.302h13.226c17.044,0,30.871-13.827,30.871-30.87V227.89C519.297,210.838,505.47,197.019,488.426,197.019z M97.2,21.605
		h250.193v110.51c0,5.967,4.841,10.8,10.8,10.8h95.407v54.108H97.2V21.605z M406.467,363.983h-26.104l-1.751-46.464
		c-0.527-14.598-1.055-32.236-1.055-49.895h-0.517c-3.691,15.485-8.596,32.782-13.163,47.015l-14.354,47.366h-20.851l-12.625-47.002
		c-3.85-14.228-7.889-31.524-10.694-47.374h-0.348c-0.707,16.397-1.234,35.129-2.1,50.253l-2.114,46.111h-24.711l7.535-121.395
		h35.575l11.569,40.521c3.691,14.048,7.362,29.183,9.999,43.416h0.521c3.344-14.054,7.356-30.074,11.222-43.585l12.614-40.353
		h34.879L406.467,363.983z M174.438,265.642v-23.058h90.77v23.058h-32.239v98.342h-26.821v-98.342H174.438z M89.403,313.195v50.788
		H62.604V242.584h26.799v46.654h43.999v-46.654h26.645v121.399h-26.645v-50.794H89.403V313.195z M453.601,523.353H97.2V419.302
		h356.4V523.353z M500.787,363.983h-73.786V242.584h26.811v98.339h46.976V363.983z"/> </g>                </symbol>
<symbol id="instagram" viewBox="0 0 200 200"> <path fill="" fill-rule="evenodd" d="m100 0c55.2286 0 100 44.7714 100 100s-44.7714 100-100 100-100-44.7714-100-100 44.7714-100 100-100zm-.3590044 33c-18.0987041 0-20.3681183.0767141-27.476075.4010295-7.0931429.3235218-11.937505 1.4501607-16.176355 3.0976618-4.3822259 1.7027881-8.0986264 3.9814609-11.8036522 7.6862221-3.7047612 3.7050258-5.983434 7.4214263-7.6862221 11.8036522-1.6475011 4.23885-2.77414 9.0832121-3.0976618 16.176355-.3243154 7.1079567-.4010295 9.3773709-.4010295 27.476075 0 18.0984394.0767141 20.3678534.4010295 27.4758104.3235218 7.093143 1.4501607 11.937505 3.0976618 16.176355 1.7027881 4.382226 3.9814609 8.098627 7.6862221 11.803652 3.7050258 3.704761 7.4214263 5.983434 11.8036522 7.686487 4.23885 1.647237 9.0832121 2.773875 16.176355 3.097397 7.1079567.324316 9.3773709.40103 27.476075.40103 18.0984394 0 20.3678534-.076714 27.4758104-.40103 7.093143-.323522 11.937505-1.45016 16.176355-3.097397 4.382226-1.703053 8.098627-3.981726 11.803652-7.686487 3.704761-3.705025 5.983434-7.421426 7.686487-11.803652 1.647237-4.23885 2.773875-9.083212 3.097397-16.176355.324316-7.107957.40103-9.377371.40103-27.4758104 0-18.0987041-.076714-20.3681183-.40103-27.476075-.323522-7.0931429-1.45016-11.937505-3.097397-16.176355-1.703053-4.3822259-3.981726-8.0986264-7.686487-11.8036522-3.705025-3.7047612-7.421426-5.983434-11.803652-7.6862221-4.23885-1.6475011-9.083212-2.77414-16.176355-3.0976618-7.107957-.3243154-9.377371-.4010295-27.4758104-.4010295zm0 12.0073413c17.7936994 0 19.9014854.0679846 26.9284954.3885965 6.497418.2962751 10.026001 1.3819117 12.374246 2.2945447 3.110624 1.2089082 5.330571 2.6529847 7.662414 4.9850928 2.332109 2.3318437 3.776185 4.5517905 4.985093 7.6624144.912633 2.3482445 1.99827 5.8768278 2.294545 12.3742462.320612 7.0270101.388596 9.1347957.388596 26.9287597 0 17.7936994-.067984 19.9014854-.388596 26.9284954-.296275 6.497418-1.381912 10.026001-2.294545 12.374246-1.208908 3.110624-2.652984 5.330571-4.985093 7.662414-2.331843 2.332109-4.55179 3.776185-7.662414 4.985093-2.348245.912633-5.876828 1.99827-12.374246 2.294545-7.025952.320612-9.133473.388596-26.9284954.388596-17.7952867 0-19.9025432-.067984-26.9287597-.388596-6.4974184-.296275-10.0260017-1.381912-12.3742462-2.294545-3.1106239-1.208908-5.3305707-2.652984-7.6624144-4.985093-2.3318436-2.331843-3.7761846-4.55179-4.9850928-7.662414-.912633-2.348245-1.9982696-5.876828-2.2945447-12.374246-.3206119-7.02701-.3885965-9.134796-.3885965-26.9284954 0-17.793964.0679846-19.9017496.3885965-26.9287597.2962751-6.4974184 1.3819117-10.0260017 2.2945447-12.3742462 1.2089082-3.1106239 2.6529847-5.3305707 4.9850928-7.6624144 2.3318437-2.3321081 4.5517905-3.7761846 7.6624144-4.9850928 2.3482445-.912633 5.8768278-1.9982696 12.3742462-2.2945447 7.0270101-.3206119 9.1347957-.3885965 26.9287597-.3885965zm43.0796084 19.4213991c0-4.4166149-3.580431-7.9970464-7.997046-7.9970464-4.416351 0-7.996782 3.5804315-7.996782 7.9970464 0 4.416615 3.580431 7.996782 7.996782 7.996782 4.416615 0 7.997046-3.580167 7.997046-7.996782zm-43.2809301 1.5220793c-18.8999695 0-34.2210947 15.3211252-34.2210947 34.2210943 0 18.899705 15.3211252 34.220831 34.2210947 34.220831 18.8997051 0 34.2208301-15.321126 34.2208301-34.220831 0-18.8999691-15.321125-34.2210943-34.2208301-34.2210943zm0 56.4345833c-12.2684337 0-22.2137533-9.945319-22.2137533-22.213489 0-12.2684334 9.9453196-22.213753 22.2137533-22.213753 12.2681691 0 22.2134891 9.9453196 22.2134891 22.213753 0 12.26817-9.94532 22.213489-22.2134891 22.213489z"/> </symbol>
<symbol id="jquery" viewBox="0 0 50 50"><path d="M 29.867188 3.007813 C 29.761719 3.023438 29.65625 3.054688 29.554688 3.101563 C 28.695313 3.527344 27.71875 4.792969 27.53125 5.042969 C 27.519531 5.058594 27.507813 5.074219 27.5 5.089844 C 26.535156 6.535156 26.019531 8.226563 26 9.988281 C 25.988281 11.308594 26.246094 12.617188 26.769531 13.878906 C 27.988281 16.804688 30.519531 19.226563 33.53125 20.359375 C 33.632813 20.394531 33.730469 20.429688 33.90625 20.492188 C 33.921875 20.5 34.070313 20.546875 34.09375 20.550781 L 34.203125 20.589844 C 34.359375 20.640625 34.519531 20.691406 34.675781 20.722656 C 35.46875 20.882813 36.242188 20.972656 36.96875 20.996094 C 37.09375 20.996094 37.21875 21 37.34375 21 C 42.824219 21 44.949219 17.132813 45.65625 15.84375 C 45.726563 15.71875 45.777344 15.617188 45.824219 15.554688 C 45.824219 15.550781 45.824219 15.550781 45.828125 15.546875 C 46.136719 15.089844 46.019531 14.46875 45.5625 14.15625 C 45.109375 13.847656 44.488281 13.964844 44.175781 14.421875 C 44.175781 14.421875 44.171875 14.421875 44.171875 14.421875 C 42.710938 16.574219 40.210938 17.226563 36.746094 16.367188 C 36.488281 16.304688 36.207031 16.207031 35.957031 16.113281 C 35.628906 15.996094 35.300781 15.859375 34.996094 15.710938 C 34.390625 15.410156 33.820313 15.050781 33.304688 14.652344 C 30.257813 12.289063 29.066406 7.371094 30.847656 4.53125 C 31.085938 4.152344 31.042969 3.660156 30.742188 3.328125 C 30.515625 3.078125 30.1875 2.964844 29.867188 3.007813 Z M 21.007813 5 C 20.78125 4.996094 20.550781 5.070313 20.363281 5.226563 C 18.851563 6.457031 17.304688 8.472656 17.238281 8.554688 C 17.230469 8.570313 17.222656 8.582031 17.210938 8.597656 C 14.476563 12.578125 14.269531 18.242188 16.6875 23.027344 C 17.066406 23.785156 17.496094 24.507813 17.953125 25.171875 L 18.089844 25.367188 C 18.476563 25.933594 18.910156 26.574219 19.464844 27.074219 C 19.65625 27.292969 19.863281 27.503906 20.066406 27.707031 L 20.164063 27.808594 L 20.246094 27.890625 C 20.453125 28.089844 20.664063 28.292969 20.882813 28.488281 C 20.882813 28.488281 20.886719 28.488281 20.886719 28.488281 C 20.902344 28.511719 20.925781 28.527344 20.945313 28.546875 C 21.191406 28.765625 21.441406 28.972656 21.773438 29.234375 L 21.863281 29.300781 C 22.121094 29.507813 22.382813 29.703125 22.652344 29.894531 C 22.679688 29.914063 22.707031 29.933594 22.734375 29.953125 C 22.828125 30.015625 22.921875 30.074219 23.015625 30.140625 L 23.109375 30.203125 L 23.21875 30.273438 C 23.417969 30.40625 23.613281 30.527344 23.890625 30.6875 C 24.070313 30.796875 24.261719 30.90625 24.386719 30.96875 C 24.441406 31 24.5 31.03125 24.636719 31.105469 L 24.941406 31.265625 C 24.957031 31.273438 25.027344 31.304688 25.042969 31.3125 C 25.242188 31.414063 25.449219 31.511719 25.65625 31.605469 L 25.972656 31.746094 C 26.179688 31.835938 26.390625 31.921875 26.648438 32.019531 L 26.765625 32.0625 C 26.773438 32.070313 26.871094 32.105469 26.878906 32.109375 C 27.066406 32.175781 27.257813 32.242188 27.449219 32.304688 L 27.886719 32.449219 C 28.105469 32.523438 28.359375 32.609375 28.636719 32.65625 C 30 32.882813 31.324219 33 32.578125 33 C 32.726563 33 32.875 32.996094 33.019531 32.996094 C 44.058594 32.753906 46.929688 23.375 46.957031 23.28125 C 47.09375 22.808594 46.871094 22.304688 46.425781 22.09375 C 45.980469 21.882813 45.449219 22.03125 45.171875 22.4375 C 42.375 26.523438 37.085938 28.25 31.699219 26.828125 C 31.449219 26.765625 31.207031 26.695313 30.90625 26.597656 C 30.855469 26.582031 30.8125 26.566406 30.730469 26.535156 C 30.554688 26.480469 30.382813 26.421875 30.1875 26.347656 L 29.910156 26.242188 C 29.75 26.179688 29.589844 26.117188 29.394531 26.03125 L 29.265625 25.972656 C 29.027344 25.871094 28.796875 25.757813 28.589844 25.65625 L 28.019531 25.359375 C 27.890625 25.296875 27.777344 25.226563 27.601563 25.121094 L 27.503906 25.066406 L 27.40625 25.007813 C 27.261719 24.921875 27.117188 24.832031 26.984375 24.738281 L 26.890625 24.679688 C 26.882813 24.675781 26.804688 24.621094 26.796875 24.613281 C 26.679688 24.539063 26.566406 24.464844 26.457031 24.394531 C 26.214844 24.222656 25.976563 24.042969 25.699219 23.824219 L 25.589844 23.734375 C 23.011719 21.675781 21.105469 18.925781 20.210938 15.976563 C 19.378906 13.269531 19.996094 9.726563 21.863281 6.5 C 22.105469 6.082031 22.015625 5.550781 21.644531 5.238281 C 21.460938 5.082031 21.234375 5 21.007813 5 Z M 10.003906 8 C 9.765625 8 9.523438 8.085938 9.332031 8.257813 C 7.421875 9.972656 5.992188 12.195313 5.835938 12.449219 C 1.75 18.398438 2.539063 27.644531 5.34375 33.296875 C 5.398438 33.414063 5.457031 33.527344 5.515625 33.640625 L 5.554688 33.703125 C 5.605469 33.816406 5.664063 33.933594 5.683594 33.957031 C 5.714844 34.03125 5.761719 34.113281 5.78125 34.136719 C 5.828125 34.234375 5.875 34.320313 5.960938 34.46875 L 6.28125 35.019531 C 6.328125 35.09375 6.375 35.171875 6.390625 35.199219 C 6.453125 35.300781 6.519531 35.40625 6.585938 35.511719 L 6.742188 35.761719 C 6.789063 35.835938 6.835938 35.902344 6.867188 35.941406 C 7.023438 36.183594 7.179688 36.425781 7.351563 36.65625 C 7.359375 36.667969 7.367188 36.675781 7.375 36.683594 L 7.4375 36.769531 C 7.578125 36.972656 7.722656 37.167969 7.851563 37.328125 L 8.421875 38.050781 C 8.429688 38.058594 8.492188 38.132813 8.496094 38.140625 L 8.578125 38.234375 C 8.75 38.445313 8.933594 38.65625 9.117188 38.859375 C 9.144531 38.890625 9.171875 38.917969 9.199219 38.949219 C 9.375 39.140625 9.554688 39.332031 9.742188 39.53125 L 9.921875 39.703125 C 10.070313 39.859375 10.21875 40.011719 10.375 40.15625 C 10.375 40.160156 10.449219 40.230469 10.449219 40.230469 L 10.605469 40.375 C 10.792969 40.554688 10.988281 40.734375 11.136719 40.859375 C 11.144531 40.871094 11.285156 40.992188 11.296875 41 C 11.480469 41.164063 11.664063 41.320313 11.851563 41.472656 L 12.808594 42.230469 C 12.96875 42.347656 13.132813 42.464844 13.320313 42.601563 C 13.382813 42.648438 13.449219 42.695313 13.515625 42.738281 C 13.542969 42.761719 13.574219 42.785156 13.59375 42.796875 L 14.3125 43.277344 C 14.574219 43.449219 14.835938 43.609375 15.15625 43.800781 L 15.328125 43.898438 C 15.527344 44.015625 15.730469 44.132813 15.921875 44.234375 C 16.035156 44.296875 16.148438 44.351563 16.246094 44.402344 C 16.382813 44.476563 16.53125 44.558594 16.757813 44.667969 C 16.777344 44.679688 16.9375 44.757813 16.957031 44.765625 C 17.183594 44.878906 17.414063 44.984375 17.703125 45.113281 C 17.703125 45.117188 17.796875 45.160156 17.796875 45.160156 C 18.0625 45.273438 18.320313 45.382813 18.660156 45.519531 C 18.714844 45.542969 18.769531 45.5625 18.78125 45.566406 C 19.023438 45.660156 19.277344 45.753906 19.484375 45.828125 C 19.503906 45.835938 19.609375 45.878906 19.628906 45.886719 C 19.90625 45.980469 20.179688 46.070313 20.53125 46.179688 C 20.589844 46.199219 20.652344 46.21875 20.660156 46.21875 L 20.859375 46.28125 C 21.101563 46.355469 21.34375 46.433594 21.605469 46.484375 C 23.464844 46.824219 25.28125 47 27 47 L 27.003906 47 C 41.328125 47 45.890625 35.472656 45.9375 35.355469 C 46.113281 34.890625 45.921875 34.367188 45.484375 34.125 C 45.054688 33.886719 44.507813 34 44.203125 34.394531 C 40.527344 39.234375 33.59375 41.03125 25.65625 39.207031 C 25.464844 39.160156 25.269531 39.105469 25.078125 39.046875 L 24.703125 38.933594 C 24.449219 38.855469 24.195313 38.769531 23.949219 38.683594 C 23.945313 38.683594 23.832031 38.640625 23.832031 38.640625 C 23.613281 38.566406 23.394531 38.480469 23.203125 38.40625 L 22.984375 38.320313 C 22.742188 38.222656 22.5 38.121094 22.265625 38.015625 L 22.128906 37.957031 C 21.917969 37.859375 21.714844 37.765625 21.511719 37.664063 C 21.496094 37.65625 21.335938 37.578125 21.320313 37.574219 C 21.179688 37.503906 21.039063 37.429688 20.859375 37.332031 L 20.042969 36.894531 C 19.960938 36.839844 19.875 36.789063 19.792969 36.746094 C 19.546875 36.59375 19.292969 36.441406 19.042969 36.28125 C 18.984375 36.246094 18.933594 36.207031 18.835938 36.140625 C 18.664063 36.03125 18.496094 35.917969 18.25 35.746094 L 18.152344 35.675781 C 17.984375 35.558594 17.820313 35.433594 17.683594 35.332031 C 17.597656 35.269531 17.511719 35.199219 17.371094 35.09375 C 17.246094 34.996094 17.121094 34.902344 17.003906 34.808594 L 16.785156 34.628906 C 16.601563 34.480469 16.429688 34.324219 16.25 34.171875 C 16.226563 34.148438 16.207031 34.132813 16.179688 34.113281 C 15.980469 33.929688 15.777344 33.746094 15.535156 33.515625 L 14.828125 32.8125 C 14.65625 32.636719 14.484375 32.457031 14.289063 32.242188 C 14.109375 32.042969 13.9375 31.84375 13.707031 31.570313 L 13.285156 31.054688 C 13.234375 30.980469 13.179688 30.90625 13.113281 30.828125 C 12.96875 30.632813 12.824219 30.441406 12.679688 30.238281 C 8.789063 24.878906 7.773438 13.691406 10.804688 9.59375 C 11.109375 9.183594 11.054688 8.605469 10.671875 8.257813 C 10.484375 8.085938 10.242188 8 10.003906 8 Z"/></symbol>
<symbol id="js" viewBox="0 0 512 512"><g><path d="m383 15v66h66z"/><path d="m481 238.999h-450v194h450zm-241.125 112.424c0 24.882-20.243 45.125-45.125 45.125s-45.125-20.243-45.125-45.125h30c0 8.34 6.785 15.125 15.125 15.125s15.125-6.785 15.125-15.125v-75.346h30zm76.907 45.075h-43.657v-30h43.657c4.187 0 7.593-3.406 7.593-7.593s-3.406-7.593-7.593-7.593h-15.048c-20.738 0-37.609-16.871-37.609-37.609 0-10.052 3.916-19.5 11.026-26.605 7.103-7.096 16.542-11.004 26.581-11.004h.033l43.62.031-.021 30-43.622-.031c-.002 0-.005 0-.007 0-2.742 0-4.547 1.395-5.38 2.226-.833.833-2.23 2.639-2.23 5.383 0 4.195 3.413 7.609 7.609 7.609h15.048c20.729 0 37.593 16.864 37.593 37.593s-16.864 37.593-37.593 37.593z"/><path d="m464 208.999v-97.999h-111v-111h-305v208.999zm-351.934-127.999h191.867v30h-191.867zm0 64h287.867v30h-287.867z"/><path d="m48 462.999h416v49.001h-416z"/></g></symbol>
<symbol id="logo" viewBox="2.7 0 45 45"><path d="M46,11l-2.96-3.96c-1.22-1.22-3.08-1.52-4.62-0.75L37,7l-5-5H18l-5,5l-1.42-0.71c-1.54-0.77-3.4-0.47-4.62,0.75L4,11l2,3	l-2,4l5.77,17.47c0.79,2.28,2.38,4.19,4.47,5.38L25,47l10.76-6.15c2.09-1.19,3.68-3.1,4.47-5.38L46,18l-2-4L46,11z M25,40l-6-6	c0,0,5-3,6-3s6,3,6,3L25,40z M38.68,18.76L34,25l0.57,0.85c0.41,0.61,0.61,1.32,0.61,2.02c0,0.78-0.24,1.55-0.73,2.19	c-0.52,0.7-1.29,1.26-2.04,1.59C31.9,31.88,31.4,32,31,32c-0.9,0-2.617-1.621-5-3.331v-1.102l4.515-2.709	c0.369-0.221,0.555-0.654,0.462-1.074l-1.459-6.566c0.174-0.406,0.444-0.744,0.845-0.964L36,14l-3-1h-2l-0.014,0.014	c-0.1,0.002-0.202,0.004-0.303,0.038l-3,1c-0.486,0.162-0.771,0.666-0.66,1.166l1.844,8.296L25,25.834l-3.868-2.321l1.844-8.296	c0.111-0.5-0.174-1.003-0.66-1.166l-3-1c-0.101-0.034-0.202-0.036-0.303-0.038L19,13h-2l-3,1l5.638,2.253	c0.401,0.22,0.671,0.558,0.845,0.964l-1.459,6.566c-0.093,0.42,0.092,0.853,0.461,1.074L24,27.566v1.126	C21.553,30.436,19.884,32,19,32c-0.4,0-0.9-0.12-1.41-0.35c-0.75-0.33-1.52-0.89-2.04-1.59c-0.93-1.23-0.98-2.92-0.12-4.21L16,25	l-4.68-6.24c-0.79-1.05-0.8-2.48-0.04-3.55L15,9l2.73,0.55c0.38,0.08,0.77,0.11,1.16,0.11c1.08,0,2.16-0.29,3.1-0.85	c0.93-0.56,1.97-0.84,3.01-0.84s2.08,0.28,3.01,0.84c1.28,0.76,2.8,1.03,4.26,0.74L35,9l3.72,6.21	C39.48,16.28,39.47,17.71,38.68,18.76z"/></symbol>
<symbol id="photoshop" viewBox="0 0 48 48"><path d="M 13.5 6 C 9.3754991 6 6 9.3754991 6 13.5 L 6 34.5 C 6 38.624501 9.3754991 42 13.5 42 L 34.5 42 C 38.624501 42 42 38.624501 42 34.5 L 42 13.5 C 42 9.3754991 38.624501 6 34.5 6 L 13.5 6 z M 13.5 9 L 34.5 9 C 37.003499 9 39 10.996501 39 13.5 L 39 34.5 C 39 37.003499 37.003499 39 34.5 39 L 13.5 39 C 10.996501 39 9 37.003499 9 34.5 L 9 13.5 C 9 10.996501 10.996501 9 13.5 9 z M 16.5 15 A 1.50015 1.50015 0 0 0 15 16.5 L 15 31.5 A 1.50015 1.50015 0 1 0 18 31.5 L 18 26 L 19 26 C 22.019774 26 24.5 23.519774 24.5 20.5 C 24.5 17.480226 22.019774 15 19 15 L 16.5 15 z M 18 18 L 19 18 C 20.398226 18 21.5 19.101774 21.5 20.5 C 21.5 21.898226 20.398226 23 19 23 L 18 23 L 18 18 z M 29.050781 21 C 26.997644 21 25.300781 22.696863 25.300781 24.75 C 25.300781 26.803137 26.997644 28.5 29.050781 28.5 L 30.25 28.5 C 30.682863 28.5 31 28.817137 31 29.25 C 31 29.682863 30.682863 30 30.25 30 L 28.099609 30 C 27.965151 30 27.859195 29.95371 27.769531 29.875 C 27.751901 29.85954 27.734366 29.844018 27.722656 29.830078 A 1.50015 1.50015 0 1 0 25.425781 31.757812 C 25.540068 31.893868 25.662647 32.018317 25.791016 32.130859 C 26.405347 32.670147 27.222068 33 28.099609 33 L 30.25 33 C 32.303137 33 34 31.303137 34 29.25 C 34 27.196863 32.303137 25.5 30.25 25.5 L 29.050781 25.5 C 28.617918 25.5 28.300781 25.182863 28.300781 24.75 C 28.300781 24.317137 28.617918 24 29.050781 24 L 30.400391 24 C 30.627365 24 30.797197 24.136679 30.867188 24.320312 A 1.50015 1.50015 0 1 0 33.669922 23.251953 C 33.165912 21.929587 31.879416 21 30.400391 21 L 29.050781 21 z"/></symbol>
<symbol id="portfolio" viewBox="0 0 512 512"> <g> <g> <path d="M467,91h-90.188L360.23,41.257C358.188,35.131,352.456,31,346,31H166c-6.457,0-12.188,4.131-14.23,10.257L135.188,91H45
			c-24.813,0-45,20.187-45,45v90c0,5.693,3.224,10.896,8.321,13.431L15,242.752V436c0,24.813,20.187,45,45,45h392
			c24.813,0,45-20.187,45-45V242.752l6.679-3.321C508.776,236.896,512,231.693,512,226v-90C512,111.187,491.813,91,467,91z
			 M176.812,61h158.377l10,30H166.812L176.812,61z M467,436c0,8.271-6.729,15-15,15H60c-8.271,0-15-6.729-15-15V257.669
			l137.097,68.17C186.598,345.934,204.567,361,226,361h60c21.433,0,39.402-15.066,43.903-35.161L467,257.669V436z M211,316
			c0-8.271,6.729-15,15-15h60c8.271,0,15,6.729,15,15s-6.729,15-15,15h-60C217.729,331,211,324.271,211,316z M482,216.707
			L325.528,294.51C317.889,280.516,303.036,271,286,271h-60c-17.035,0-31.889,9.516-39.528,23.51L30,216.707V136
			c0-8.271,6.729-15,15-15c9.459,0,413.048,0,422,0c8.271,0,15,6.729,15,15V216.707z"/> </g> </g>                </symbol>
<symbol id="projects" viewBox="0 0 114.5 122.9"><g><path class="st0" d="M105.4,76.3l3.8,3.8c1,1,1,2.6,0,3.6l-3.1,3.1c0.8,1.6,1.5,3.3,1.9,5.1h4c1.4,0,2.6,1.2,2.6,2.6v5.4 c0,1.4-1.2,2.6-2.6,2.6h-4.3c-0.5,1.7-1.3,3.4-2.2,4.9l2.8,2.8c1,1,1,2.6,0,3.6l-3.8,3.8c-1,1-2.6,1-3.6,0l-3.1-3.1 c-1.6,0.8-3.3,1.5-5.1,1.9v4c0,1.4-1.2,2.6-2.6,2.6h-5.4c-1.4,0-2.6-1.2-2.6-2.6V116c-1.7-0.5-3.4-1.3-4.9-2.2l-2.8,2.8 c-1,1-2.6,1-3.6,0l-3.8-3.8c-1-1-1-2.6,0-3.6l3.1-3.1c-0.8-1.6-1.5-3.3-1.9-5.1h-4c-1.4,0-2.6-1.2-2.6-2.6v-5.4 c0-1.4,1.2-2.6,2.6-2.6h4.3c0.5-1.7,1.3-3.4,2.2-4.9L68,82.8c-1-1-1-2.6,0-3.6l3.8-3.8c1-1,2.6-1,3.6,0l3.1,3.1 c1.6-0.8,3.3-1.5,5.1-1.9v-4c0-1.4,1.2-2.6,2.6-2.6h5.4c1.4,0,2.6,1.2,2.6,2.6v4.3c1.7,0.5,3.4,1.3,4.9,2.2l2.8-2.8 C102.7,75.3,104.4,75.3,105.4,76.3L105.4,76.3L105.4,76.3z M41.4,82.2c-1.4,0-2.5-1.4-2.5-3c0-1.7,1.1-3,2.5-3h12.4 c1.4,0,2.5,1.4,2.5,3c0,1.7-1.1,3-2.5,3H41.4L41.4,82.2L41.4,82.2z M45.1,112.3c1.7,0,3,1.4,3,3c0,1.7-1.4,3-3,3h-38 c-1.9,0-3.7-0.8-5-2.1c-1.3-1.3-2.1-3-2.1-5V7.1c0-2,0.8-3.7,2.1-5c1.3-1.3,3-2.1,5-2.1h86.7c1.9,0,3.7,0.8,5,2.1 c1.3,1.3,2.1,3,2.1,5v48.3c0,1.7-1.4,3-3,3c-1.7,0-3-1.4-3-3V7.1c0-0.3-0.1-0.5-0.3-0.7c-0.2-0.2-0.4-0.3-0.7-0.3H7.1 c-0.3,0-0.5,0.1-0.7,0.3C6.2,6.5,6.1,6.8,6.1,7.1v104.3c0,0.3,0.1,0.5,0.3,0.7c0.2,0.2,0.4,0.3,0.7,0.3H45.1L45.1,112.3L45.1,112.3 z M18.8,74.1h10.7c0.6,0,1,0.4,1,1v9.2c0,0.6-0.4,1-1,1H18.8c-0.6,0-1-0.4-1-1v-9.2C17.8,74.5,18.2,74.1,18.8,74.1L18.8,74.1 L18.8,74.1z M18.8,21.2h10.7c0.6,0,1,0.4,1,1v9.2c0,0.6-0.4,1-1,1H18.8c-0.6,0-1-0.4-1-1v-9.2C17.8,21.6,18.2,21.2,18.8,21.2 L18.8,21.2L18.8,21.2z M41.4,29.3c-1.4,0-2.5-1.4-2.5-3c0-1.7,1.1-3,2.5-3h34.7c1.4,0,2.5,1.4,2.5,3c0,1.7-1.1,3-2.5,3H41.4 L41.4,29.3L41.4,29.3z M21.9,57.4c-0.7,0.5-1.6,0.4-2.3-0.3c-0.1-0.1-0.1-0.1-0.2-0.2l-3.2-3.3c-0.7-0.7-0.5-1.8,0.3-2.6 c0.9-0.7,2.1-0.8,2.8-0.1l1.7,1.8l5.6-4.5c0.7-0.6,1.9-0.3,2.5,0.6c0.7,0.9,0.6,2.2-0.2,2.8L21.9,57.4L21.9,57.4L21.9,57.4z M39.7,54.8c-1.4,0-2.5-1.4-2.5-3c0-1.7,1.1-3,2.5-3h34.7c1.4,0,2.5,1.4,2.5,3c0,1.7-1.1,3-2.5,3H39.7L39.7,54.8L39.7,54.8z M88.1,85.9c5.8,0,10.6,4.7,10.6,10.6c0,5.8-4.7,10.6-10.6,10.6c-5.8,0-10.6-4.7-10.6-10.6C77.5,90.6,82.3,85.9,88.1,85.9 L88.1,85.9L88.1,85.9z"/></g></symbol>
<symbol id="skills" viewBox="0 0 485.213 485.212"> <g> <path d="M242.606,0C159.005,0,90.978,68.027,90.978,151.628c0,37.584,17.119,71.966,33.703,105.191
		c13.859,27.867,26.948,54.166,26.948,76.765c0,16.759,13.565,30.321,30.327,30.321h121.3c16.765,0,30.331-13.562,30.331-30.321
		c0-23.724,13.231-50.139,27.271-78.062c16.409-32.699,33.379-66.52,33.379-103.894C394.235,68.027,326.208,0,242.606,0z
		 M303.255,333.584H257.77v-90.979c0-8.379-6.781-15.161-15.163-15.161c-8.382,0-15.164,6.781-15.164,15.161v90.979h-45.488
		c0-59.706-60.651-121.303-60.651-181.956c0-66.989,54.313-121.302,121.302-121.302c66.991,0,121.302,54.313,121.302,121.302
		C363.908,212.282,303.255,271.988,303.255,333.584z M288.097,197.119c0,8.38-6.781,15.163-15.164,15.163h-60.65
		c-8.385,0-15.166-6.783-15.166-15.163c0-8.382,6.781-15.164,15.166-15.164h60.65C281.315,181.955,288.097,188.736,288.097,197.119z
		 M288.097,151.628c0,8.38-6.781,15.166-15.164,15.166h-60.65c-8.385,0-15.166-6.786-15.166-15.166s6.781-15.161,15.166-15.161
		h60.65C281.315,136.467,288.097,143.249,288.097,151.628z M303.255,409.396c8.382,0,15.168,6.786,15.168,15.163
		c0,8.383-6.786,15.168-15.168,15.168c8.382,0,15.168,6.777,15.168,15.159c0,8.377-6.786,15.163-15.168,15.163h-30.322
		c-7.163,9.535-18.388,15.163-30.326,15.163c-11.936,0-23.161-5.628-30.324-15.163h-30.327c-8.379,0-15.161-6.786-15.161-15.163
		c0-8.382,6.781-15.159,15.161-15.159c-8.379,0-15.161-6.785-15.161-15.168c0-8.377,6.781-15.163,15.161-15.163
		c-8.379,0-15.161-6.776-15.161-15.159c0-8.382,6.781-15.163,15.161-15.163h121.3c8.382,0,15.168,6.781,15.168,15.163
		C318.423,402.62,311.637,409.396,303.255,409.396z"/> </g>                </symbol>
<symbol id="telegram" viewBox="0 0 1280 1280" preserveAspectRatio="xMidYMid meet"> <metadata> Created by potrace 1.15, written by Peter Selinger 2001-2017 </metadata> <g transform="translate(0.000000,1280.000000) scale(0.100000,-0.100000)" fill="" stroke="none"> <path d="M6095 12794 c-27 -2 -115 -8 -195 -14 -1158 -85 -2296 -503 -3249
-1194 -1410 -1020 -2339 -2557 -2585 -4276 -49 -341 -60 -508 -60 -910 0 -402
11 -569 60 -910 176 -1227 699 -2366 1518 -3305 132 -151 433 -452 594 -593
968 -850 2160 -1386 3427 -1541 308 -38 447 -46 795 -46 348 0 487 8 795 46
1993 244 3764 1427 4767 3184 456 799 722 1651 815 2610 24 253 24 857 0 1110
-81 836 -282 1553 -638 2276 -496 1007 -1245 1859 -2194 2499 -271 183 -726
428 -1045 563 -627 266 -1261 422 -1985 488 -112 10 -729 20 -820 13z m845
-569 c748 -74 1424 -266 2069 -589 1755 -879 2947 -2559 3195 -4506 57 -444
57 -1016 0 -1460 -190 -1489 -937 -2843 -2091 -3788 -864 -709 -1899 -1153
-2993 -1286 -276 -34 -395 -41 -720 -41 -325 0 -444 7 -720 41 -2051 249
-3828 1582 -4652 3489 -251 580 -400 1177 -460 1845 -28 312 -15 862 28 1200
247 1945 1440 3627 3195 4506 714 357 1479 558 2309 608 141 8 692 -4 840 -19z"/> <path d="M10140 8845 c-36 -8 -157 -32 -270 -54 -547 -107 -1077 -210 -1490
-291 -250 -49 -1263 -247 -2250 -440 -987 -193 -2001 -391 -2252 -440 -581
-114 -1281 -251 -1693 -332 -308 -60 -321 -63 -355 -94 -32 -30 -35 -37 -35
-89 0 -55 2 -59 46 -99 25 -22 404 -331 842 -684 l797 -644 0 -927 0 -928 23
-34 c27 -40 88 -66 133 -55 20 5 173 151 524 501 l495 495 885 -716 c487 -394
896 -720 910 -726 34 -13 97 -4 122 19 11 10 864 1223 1895 2696 1295 1849
1876 2687 1879 2710 6 38 -20 92 -56 119 -36 26 -76 29 -150 13z m8 -158 c-10
-7 -1348 -787 -2975 -1735 l-2958 -1723 -300 -589 c-233 -456 -301 -582 -303
-559 -3 24 17 379 73 1338 8 134 16 245 17 246 2 1 626 294 1388 652 2443
1149 4598 2162 4835 2274 127 60 232 109 235 109 3 -1 -3 -6 -12 -13z"/> </g> </symbol>
</svg>