<svg height="24" viewBox="0 0 200 200" width="24" xmlns="http://www.w3.org/2000/svg"><path d="m100 0c55.2286 0 100 44.7714 100 100s-44.7714 100-100 100-100-44.7714-100-100 44.7714-100 100-100zm43.114286 34h-84.2285717c-7.1028572 0-12.8857143 5.796-12.8857143 12.978v85.176c0 7.182 5.7828571 12.978 12.8857143 12.978h71.2799997l-3.331428-11.655 8.045714 7.497 7.605714 7.056 13.514286 11.97v-113.022c0-7.182-5.782857-12.978-12.885714-12.978zm-24.262857 82.278s-2.262858-2.709-4.148572-5.103c8.234286-2.331 11.377143-7.497 11.377143-7.497-2.577143 1.701-5.028571 2.898-7.228571 3.717-3.142858 1.323-6.16 2.205-9.114286 2.709-6.034286 1.134-11.5657144.819-16.2800001-.063-3.5828572-.693-6.6628572-1.701-9.24-2.709-1.4457143-.567-3.0171429-1.26-4.5885715-2.142-.1885714-.126-.3771428-.189-.5657143-.315-.1257142-.063-.1885714-.126-.2514285-.189-1.1314286-.63-1.76-1.071-1.76-1.071s3.0171428 5.04 11 7.434c-1.8857143 2.394-4.2114286 5.229-4.2114286 5.229-13.8914286-.441-19.1714286-9.576-19.1714286-9.576 0-20.286 9.0514286-36.729 9.0514286-36.729 9.0514286-6.804 17.6628571-6.615 17.6628571-6.615l.6285715.756c-11.3142857 3.276-16.5314286 8.253-16.5314286 8.253s1.3828571-.756 3.7085714-1.827c6.7257143-2.961 12.0685715-3.78 14.2685715-3.969.3771428-.063.6914285-.126 1.0685714-.126 3.8342857-.504 8.1714287-.63 12.6971427-.126 5.971429.693 12.382857 2.457 18.92 6.048 0 0-4.965714-4.725-15.651428-8.001l.88-1.008s8.611428-.189 17.662857 6.615c0 0 9.051428 16.443 9.051428 36.729 0 0-5.342857 9.135-19.234285 9.576zm-29.2285719-29.421c-3.5828571 0-6.4114285 3.15-6.4114285 6.993s2.8914285 6.993 6.4114285 6.993c3.5828572 0 6.4114286-3.15 6.4114286-6.993.0628572-3.843-2.8285714-6.993-6.4114286-6.993zm22.9428569 0c-3.582857 0-6.411428 3.15-6.411428 6.993s2.891428 6.993 6.411428 6.993c3.582857 0 6.411429-3.15 6.411429-6.993s-2.828572-6.993-6.411429-6.993z" fill="" fill-rule="evenodd"/></svg>