<svg height="24" viewBox="0 0 200 195" width="24" xmlns="http://www.w3.org/2000/svg"><path d="m0 99.8132231c0-55.1272727 44.6958678-99.8132231 99.814876-99.8132231 55.123967 0 99.813223 44.6859504 99.813223 99.8132231 0 44.0859509-28.563636 81.4876029-68.201653 94.7008269-5.059504.980165-6.856198-2.132232-6.856198-4.78843 0-3.289256.115702-14.038017.115702-27.391736 0-9.312396-3.190082-15.386777-6.770248-18.484297 22.226447-2.471075 45.57686-10.912397 45.57686-49.249587 0-10.8975207-3.872727-19.8016529-10.272727-26.7917355 1.036363-2.5157025 4.454545-12.6661157-.978513-26.4148761 0 0-8.370248-2.6826446-27.421487 10.231405-7.97686-2.2115703-16.522314-3.3206612-25.004959-3.3586777-8.4826446.0380165-17.0214876 1.1471074-24.983471 3.3586777-19.0743802-12.9140496-27.4561984-10.231405-27.4561984-10.231405-5.4198347 13.7487604-2.0033058 23.8991736-.9669421 26.4148761-6.385124 6.9900826-10.2842976 15.8942148-10.2842976 26.7917355 0 38.246281 23.3057852 46.804959 45.4760331 49.328926-2.8545455 2.490909-5.4413223 6.89752-6.3371901 13.347107-5.6958678 2.550413-20.1438016 6.961984-29.046281-8.297521 0 0-5.2776859-9.583471-15.3008264-10.28595 0 0-9.738843-.127273-.6826446 6.067769 0 0 6.5421487 3.067768 11.0826446 14.604958 0 0 5.8595041 17.814876 33.6280992 11.77686.0429752 8.340496.1355371 16.203306.1355371 18.583471 0 2.636363-1.8314049 5.72562-6.8198347 4.801653-39.6595041-13.198347-68.2595041-50.613223-68.2595041-94.7140499zm37.3839168 44.0277539c-.2198347.497521-1 .644628-1.7107438.304132-.7239669-.32562-1.1305785-1.001653-.8958677-1.499173.214876-.510744.9966942-.65124 1.7190082-.312397.7256199.327273 1.138843 1.009917.8876033 1.507438zm3.2568903 4.381247c-.476033.441323-1.4066115.236364-2.0380165-.461157-.6528926-.695867-.7752066-1.626446-.292562-2.07438.4909091-.441322 1.3933884-.23471 2.0479339.461157.6528926.704133.7801653 1.628099.2826446 2.07438zm5.0211896 5.605256c-.6115702.424793-1.6115702.026446-2.229752-.861157-.6115703-.887604-.6115703-1.952066.0132231-2.378513.6198347-.426446 1.6049587-.042975 2.231405.838017.6099173.900826.6099173 1.966942-.0148761 2.401653zm4.0436184 6.491678c-.5471074.603306-1.7123967.441322-2.5652892-.381818-.8727273-.804959-1.1157025-1.947108-.5669422-2.550414.553719-.604958 1.7256198-.43471 2.585124.381819.8661157.803305 1.1305785 1.953719.5471074 2.550413zm7.3621875 2.191517c-.2413223.781818-1.3636363 1.13719-2.4942148.804959-1.1289257-.342149-1.8677686-1.257852-1.6396695-2.047934.2347108-.786777 1.3619835-1.157025 2.5008265-.801653 1.1272727.340496 1.8677686 1.249587 1.6330578 2.044628zm8.3784784.929584c.0280992.82314-.9305785 1.505785-2.1173554 1.519008-1.1933884.028099-2.1586777-.638016-2.1719008-1.447934 0-.831405.9371901-1.507438 2.1305785-1.527272 1.1867769-.023141 2.1586777.638016 2.1586777 1.456198zm8.2309163-1.968402c.1421488.803306-.6826446 1.6281-1.861157 1.846281-1.1586777.213224-2.2314049-.282644-2.3785124-1.079338-.1438016-.823141.6958678-1.647934 1.8528926-1.861157 1.1801653-.204959 2.2363636.277686 2.3867768 1.094214z" fill="" fill-rule=""/></svg>