<svg xmlns="http://www.w3.org/2000/svg" width="24" height="24" viewBox="0 0 200 200">
  <path fill="" fill-rule="evenodd" d="m100 0c55.2286 0 100 44.7714 100 100s-44.7714 100-100 100-100-44.7714-100-100 44.7714-100 100-100zm-.3590044 33c-18.0987041 0-20.3681183.0767141-27.476075.4010295-7.0931429.3235218-11.937505 1.4501607-16.176355 3.0976618-4.3822259 1.7027881-8.0986264 3.9814609-11.8036522 7.6862221-3.7047612 3.7050258-5.983434 7.4214263-7.6862221 11.8036522-1.6475011 4.23885-2.77414 9.0832121-3.0976618 16.176355-.3243154 7.1079567-.4010295 9.3773709-.4010295 27.476075 0 18.0984394.0767141 20.3678534.4010295 27.4758104.3235218 7.093143 1.4501607 11.937505 3.0976618 16.176355 1.7027881 4.382226 3.9814609 8.098627 7.6862221 11.803652 3.7050258 3.704761 7.4214263 5.983434 11.8036522 7.686487 4.23885 1.647237 9.0832121 2.773875 16.176355 3.097397 7.1079567.324316 9.3773709.40103 27.476075.40103 18.0984394 0 20.3678534-.076714 27.4758104-.40103 7.093143-.323522 11.937505-1.45016 16.176355-3.097397 4.382226-1.703053 8.098627-3.981726 11.803652-7.686487 3.704761-3.705025 5.983434-7.421426 7.686487-11.803652 1.647237-4.23885 2.773875-9.083212 3.097397-16.176355.324316-7.107957.40103-9.377371.40103-27.4758104 0-18.0987041-.076714-20.3681183-.40103-27.476075-.323522-7.0931429-1.45016-11.937505-3.097397-16.176355-1.703053-4.3822259-3.981726-8.0986264-7.686487-11.8036522-3.705025-3.7047612-7.421426-5.983434-11.803652-7.6862221-4.23885-1.6475011-9.083212-2.77414-16.176355-3.0976618-7.107957-.3243154-9.377371-.4010295-27.4758104-.4010295zm0 12.0073413c17.7936994 0 19.9014854.0679846 26.9284954.3885965 6.497418.2962751 10.026001 1.3819117 12.374246 2.2945447 3.110624 1.2089082 5.330571 2.6529847 7.662414 4.9850928 2.332109 2.3318437 3.776185 4.5517905 4.985093 7.6624144.912633 2.3482445 1.99827 5.8768278 2.294545 12.3742462.320612 7.0270101.388596 9.1347957.388596 26.9287597 0 17.7936994-.067984 19.9014854-.388596 26.9284954-.296275 6.497418-1.381912 10.026001-2.294545 12.374246-1.208908 3.110624-2.652984 5.330571-4.985093 7.662414-2.331843 2.332109-4.55179 3.776185-7.662414 4.985093-2.348245.912633-5.876828 1.99827-12.374246 2.294545-7.025952.320612-9.133473.388596-26.9284954.388596-17.7952867 0-19.9025432-.067984-26.9287597-.388596-6.4974184-.296275-10.0260017-1.381912-12.3742462-2.294545-3.1106239-1.208908-5.3305707-2.652984-7.6624144-4.985093-2.3318436-2.331843-3.7761846-4.55179-4.9850928-7.662414-.912633-2.348245-1.9982696-5.876828-2.2945447-12.374246-.3206119-7.02701-.3885965-9.134796-.3885965-26.9284954 0-17.793964.0679846-19.9017496.3885965-26.9287597.2962751-6.4974184 1.3819117-10.0260017 2.2945447-12.3742462 1.2089082-3.1106239 2.6529847-5.3305707 4.9850928-7.6624144 2.3318437-2.3321081 4.5517905-3.7761846 7.6624144-4.9850928 2.3482445-.912633 5.8768278-1.9982696 12.3742462-2.2945447 7.0270101-.3206119 9.1347957-.3885965 26.9287597-.3885965zm43.0796084 19.4213991c0-4.4166149-3.580431-7.9970464-7.997046-7.9970464-4.416351 0-7.996782 3.5804315-7.996782 7.9970464 0 4.416615 3.580431 7.996782 7.996782 7.996782 4.416615 0 7.997046-3.580167 7.997046-7.996782zm-43.2809301 1.5220793c-18.8999695 0-34.2210947 15.3211252-34.2210947 34.2210943 0 18.899705 15.3211252 34.220831 34.2210947 34.220831 18.8997051 0 34.2208301-15.321126 34.2208301-34.220831 0-18.8999691-15.321125-34.2210943-34.2208301-34.2210943zm0 56.4345833c-12.2684337 0-22.2137533-9.945319-22.2137533-22.213489 0-12.2684334 9.9453196-22.213753 22.2137533-22.213753 12.2681691 0 22.2134891 9.9453196 22.2134891 22.213753 0 12.26817-9.94532 22.213489-22.2134891 22.213489z"/>
</svg>
