<svg id="Capa_1" enable-background="new 0 0 512 512" height="24" viewBox="0 0 512 512" width="24" xmlns="http://www.w3.org/2000/svg"><g><path d="m383 15v66h66z"/><path d="m481 238.999h-450v194h450zm-241.125 112.424c0 24.882-20.243 45.125-45.125 45.125s-45.125-20.243-45.125-45.125h30c0 8.34 6.785 15.125 15.125 15.125s15.125-6.785 15.125-15.125v-75.346h30zm76.907 45.075h-43.657v-30h43.657c4.187 0 7.593-3.406 7.593-7.593s-3.406-7.593-7.593-7.593h-15.048c-20.738 0-37.609-16.871-37.609-37.609 0-10.052 3.916-19.5 11.026-26.605 7.103-7.096 16.542-11.004 26.581-11.004h.033l43.62.031-.021 30-43.622-.031c-.002 0-.005 0-.007 0-2.742 0-4.547 1.395-5.38 2.226-.833.833-2.23 2.639-2.23 5.383 0 4.195 3.413 7.609 7.609 7.609h15.048c20.729 0 37.593 16.864 37.593 37.593s-16.864 37.593-37.593 37.593z"/><path d="m464 208.999v-97.999h-111v-111h-305v208.999zm-351.934-127.999h191.867v30h-191.867zm0 64h287.867v30h-287.867z"/><path d="m48 462.999h416v49.001h-416z"/></g></svg>